<svg xmlns="http://www.w3.org/2000/svg" xmlns:xlink="http://www.w3.org/1999/xlink" width="500" zoomAndPan="magnify" viewBox="0 0 375 374.999991" height="500" preserveAspectRatio="xMidYMid meet" version="1.0"><defs><g/><clipPath id="30e4cd01d1"><path d="M 82 252 L 293 252 L 293 313.5625 L 82 313.5625 Z M 82 252 " clip-rule="nonzero"/></clipPath><clipPath id="6a225bdc4c"><path d="M 78.40625 61.5625 L 296.65625 61.5625 L 296.65625 181 L 78.40625 181 Z M 78.40625 61.5625 " clip-rule="nonzero"/></clipPath><clipPath id="59b572356e"><path d="M 78.40625 185 L 296.65625 185 L 296.65625 248 L 78.40625 248 Z M 78.40625 185 " clip-rule="nonzero"/></clipPath><clipPath id="68b6cb41fb"><path d="M 55.078125 185.121094 L 319.921875 185.121094 L 319.921875 248.167969 L 55.078125 248.167969 Z M 55.078125 185.121094 " clip-rule="nonzero"/></clipPath></defs><rect x="-37.5" width="450" fill="#ffffff" y="-37.499999" height="449.999989" fill-opacity="1"/><rect x="-37.5" width="450" fill="#ffffff" y="-37.499999" height="449.999989" fill-opacity="1"/><path fill="#63b702" d="M 277.851562 252.691406 L 187.53125 304.847656 L 97.214844 252.691406 Z M 277.851562 252.691406 " fill-opacity="1" fill-rule="evenodd"/><path fill="#015802" d="M 123.15625 267.671875 L 114.710938 262.792969 L 127.328125 252.691406 L 141.863281 252.691406 Z M 151.324219 283.9375 L 143.457031 279.394531 L 158.6875 252.691406 L 169.144531 252.691406 Z M 192.074219 302.222656 L 187.53125 304.847656 L 182.988281 302.222656 L 182.988281 252.691406 L 192.074219 252.691406 Z M 231.609375 279.394531 L 223.738281 283.9375 L 205.917969 252.6875 L 216.378906 252.6875 Z M 260.355469 262.792969 L 251.910156 267.671875 L 233.199219 252.691406 L 247.738281 252.691406 Z M 260.355469 262.792969 " fill-opacity="1" fill-rule="evenodd"/><g clip-path="url(#30e4cd01d1)"><path fill="#015802" d="M 292.945312 252.691406 L 187.53125 313.5625 L 82.121094 252.691406 L 92.183594 252.691406 L 187.53125 307.75 L 282.882812 252.691406 Z M 292.945312 252.691406 " fill-opacity="1" fill-rule="evenodd"/></g><g clip-path="url(#6a225bdc4c)"><path fill="#015802" d="M 187.53125 61.5625 L 296.628906 124.5625 L 296.628906 180.695312 L 291.597656 180.695312 L 291.597656 127.46875 L 187.53125 67.375 L 83.46875 127.46875 L 83.46875 180.695312 L 78.433594 180.695312 L 78.433594 124.5625 Z M 187.53125 61.5625 " fill-opacity="1" fill-rule="evenodd"/></g><g clip-path="url(#59b572356e)"><path fill="#015802" d="M 78.433594 185.726562 L 296.628906 185.726562 L 296.628906 247.65625 L 78.433594 247.65625 Z M 78.433594 185.726562 " fill-opacity="1" fill-rule="evenodd"/></g><path fill="#63b702" d="M 250.171875 153.367188 C 252.148438 145.214844 255.285156 137.035156 260.015625 128.820312 C 255.265625 143.285156 253.066406 157.253906 254.730469 170.472656 C 257.535156 162.347656 258.019531 152.632812 257.800781 142.429688 C 260.097656 152.324219 261.332031 162.097656 261.242188 171.71875 C 263.292969 157.320312 264.929688 142.46875 264.074219 124.875 C 266.238281 135.203125 267.226562 145.292969 267.378906 155.203125 C 270.203125 149.800781 273.328125 144.476562 277.097656 139.3125 C 274.167969 149.191406 273.453125 158.761719 274.550781 168.082031 C 275.199219 154.242188 281.136719 142.039062 289.835938 130.691406 C 287.171875 137.101562 285.078125 143.464844 283.230469 149.804688 C 284.261719 148.335938 285.347656 146.871094 286.910156 145.441406 C 283.566406 153.972656 282.832031 162.179688 283.890625 170.160156 C 284.410156 163.394531 286.269531 157.058594 289.085938 151.03125 C 287.058594 167.195312 287.9375 172.320312 288.140625 180.695312 C 220.78125 180.535156 153.683594 180.695312 86.476562 180.554688 C 88.320312 171.074219 90.867188 152.292969 85.039062 139.097656 C 89.582031 143.648438 91.9375 149.023438 93.851562 155.304688 C 94.8125 145.191406 96.140625 134.988281 98.3125 124.5625 C 98.292969 137.875 98.855469 150.820312 99.664062 163.617188 C 100.757812 154.878906 103.480469 146.28125 109.425781 137.960938 C 106.808594 147.945312 106.433594 157.679688 107.554688 167.25 C 108.933594 154.503906 112.789062 141.707031 120.949219 128.820312 C 115.722656 143.285156 113.304688 157.253906 115.136719 170.472656 C 118.21875 162.347656 118.753906 152.632812 118.511719 142.429688 C 121.042969 152.324219 122.398438 162.097656 122.300781 171.71875 C 124.554688 157.320312 126.359375 142.46875 125.417969 124.875 C 129.289062 138.792969 130.375 146.566406 134.449219 161.800781 C 133.617188 140.742188 129.921875 126.496094 119.867188 107.363281 C 135.050781 121.789062 142.609375 140.25 144.335938 161.8125 C 146.90625 147.988281 146.097656 134.085938 139.902344 120.058594 C 146.59375 126.757812 152.378906 134.054688 155.191406 143.304688 C 156.609375 128.414062 158.5625 113.386719 161.765625 98.035156 C 161.730469 117.636719 162.5625 136.703125 163.753906 155.542969 C 165.367188 142.675781 169.375 130.019531 178.128906 117.765625 C 174.273438 132.46875 173.722656 146.804688 175.375 160.898438 C 177.402344 142.125 183.078125 123.28125 195.101562 104.304688 C 187.402344 125.605469 183.839844 146.171875 186.539062 165.636719 C 191.082031 153.675781 191.867188 139.367188 191.507812 124.339844 C 195.238281 138.914062 197.234375 153.308594 197.089844 167.472656 C 200.410156 146.269531 203.0625 124.402344 201.675781 98.492188 C 205.183594 113.703125 206.785156 128.554688 207.03125 143.152344 C 211.605469 135.195312 216.675781 127.355469 222.78125 119.753906 C 218.035156 134.296875 216.875 148.394531 218.652344 162.121094 C 219.703125 141.738281 229.324219 123.765625 243.425781 107.058594 C 239.105469 116.496094 235.714844 125.863281 232.722656 135.199219 C 234.390625 133.039062 236.148438 130.882812 238.683594 128.777344 C 233.265625 141.34375 232.070312 153.425781 233.789062 165.179688 C 235.242188 147.941406 243.199219 132.605469 254.433594 118.222656 C 245.765625 136.960938 240.984375 155.796875 240.675781 174.738281 C 242.804688 167.558594 245.902344 160.433594 250.171875 153.367188 " fill-opacity="1" fill-rule="evenodd"/><g clip-path="url(#68b6cb41fb)"><path fill="#015802" d="M 55.078125 185.121094 L 319.832031 185.121094 L 319.832031 248.167969 L 55.078125 248.167969 Z M 55.078125 185.121094 " fill-opacity="1" fill-rule="nonzero"/></g><g fill="#ffffff" fill-opacity="1"><g transform="translate(69.577116, 230.643705)"><g><path d="M 27.40625 -15.703125 L 27.40625 -9.625 C 26.675781 -6.289062 25.085938 -3.765625 22.640625 -2.046875 C 20.191406 -0.335938 17.460938 0.515625 14.453125 0.515625 C 10.660156 0.515625 7.429688 -0.898438 4.765625 -3.734375 C 2.109375 -6.566406 0.78125 -9.992188 0.78125 -14.015625 C 0.78125 -18.085938 2.082031 -21.53125 4.6875 -24.34375 C 7.300781 -27.15625 10.554688 -28.5625 14.453125 -28.5625 C 19.003906 -28.5625 22.609375 -26.960938 25.265625 -23.765625 L 21.078125 -19.171875 C 19.585938 -21.578125 17.503906 -22.78125 14.828125 -22.78125 C 12.847656 -22.78125 11.160156 -21.921875 9.765625 -20.203125 C 8.378906 -18.492188 7.6875 -16.429688 7.6875 -14.015625 C 7.6875 -11.628906 8.378906 -9.59375 9.765625 -7.90625 C 11.160156 -6.21875 12.847656 -5.375 14.828125 -5.375 C 16.453125 -5.375 17.867188 -5.863281 19.078125 -6.84375 C 20.296875 -7.832031 20.90625 -9.144531 20.90625 -10.78125 L 14.453125 -10.78125 L 14.453125 -15.703125 Z M 27.40625 -15.703125 "/></g></g></g><g fill="#ffffff" fill-opacity="1"><g transform="translate(100.242737, 230.643705)"><g><path d="M 16.28125 -28.046875 L 27.609375 0 L 20.734375 0 L 18.671875 -5.609375 L 7.984375 -5.609375 L 5.921875 0 L -0.953125 0 L 10.375 -28.046875 Z M 16.484375 -11.21875 L 13.359375 -19.375 L 13.296875 -19.375 L 10.171875 -11.21875 Z M 16.484375 -11.21875 "/></g></g></g><g fill="#ffffff" fill-opacity="1"><g transform="translate(129.378534, 230.643705)"><g><path d="M 25.609375 -28.046875 L 11.703125 -5.609375 L 24.6875 -5.609375 L 24.6875 0 L 0.546875 0 L 14.421875 -22.4375 L 2.515625 -22.4375 L 2.515625 -28.046875 Z M 25.609375 -28.046875 "/></g></g></g><g fill="#ffffff" fill-opacity="1"><g transform="translate(158.004394, 230.643705)"><g><path d="M 0.78125 -14.046875 C 0.78125 -18.097656 2.160156 -21.53125 4.921875 -24.34375 C 7.691406 -27.15625 11.023438 -28.5625 14.921875 -28.5625 C 18.847656 -28.5625 22.179688 -27.160156 24.921875 -24.359375 C 27.660156 -21.554688 29.03125 -18.117188 29.03125 -14.046875 C 29.03125 -9.941406 27.679688 -6.488281 24.984375 -3.6875 C 22.285156 -0.882812 18.929688 0.515625 14.921875 0.515625 C 10.816406 0.515625 7.429688 -0.867188 4.765625 -3.640625 C 2.109375 -6.421875 0.78125 -9.890625 0.78125 -14.046875 Z M 7.6875 -14.046875 C 7.6875 -12.566406 7.910156 -11.21875 8.359375 -10 C 8.816406 -8.789062 9.609375 -7.765625 10.734375 -6.921875 C 11.867188 -6.085938 13.265625 -5.671875 14.921875 -5.671875 C 17.304688 -5.671875 19.101562 -6.488281 20.3125 -8.125 C 21.53125 -9.757812 22.140625 -11.734375 22.140625 -14.046875 C 22.140625 -16.328125 21.519531 -18.289062 20.28125 -19.9375 C 19.039062 -21.582031 17.253906 -22.40625 14.921875 -22.40625 C 12.609375 -22.40625 10.820312 -21.582031 9.5625 -19.9375 C 8.3125 -18.289062 7.6875 -16.328125 7.6875 -14.046875 Z M 7.6875 -14.046875 "/></g></g></g><g fill="#ffffff" fill-opacity="1"><g transform="translate(190.301828, 230.643705)"><g><path d="M 8.4375 -17.40625 L 8.4375 0 L 2.046875 0 L 2.046875 -28.046875 L 8.4375 -28.046875 L 19.578125 -10.640625 L 19.65625 -10.640625 L 19.65625 -28.046875 L 26.046875 -28.046875 L 26.046875 0 L 19.65625 0 L 8.5 -17.40625 Z M 8.4375 -17.40625 "/></g></g></g><g fill="#ffffff" fill-opacity="1"><g transform="translate(220.86546, 230.643705)"><g/></g></g><g fill="#ffffff" fill-opacity="1"><g transform="translate(232.629253, 230.643705)"><g><path d="M 16.28125 -28.046875 L 27.609375 0 L 20.734375 0 L 18.671875 -5.609375 L 7.984375 -5.609375 L 5.921875 0 L -0.953125 0 L 10.375 -28.046875 Z M 16.484375 -11.21875 L 13.359375 -19.375 L 13.296875 -19.375 L 10.171875 -11.21875 Z M 16.484375 -11.21875 "/></g></g></g><g fill="#ffffff" fill-opacity="1"><g transform="translate(261.765062, 230.643705)"><g><path d="M 2.046875 -12.4375 L 12.984375 -12.4375 L 12.984375 -7.234375 L 2.046875 -7.234375 Z M 2.046875 -12.4375 "/></g></g></g><g fill="#ffffff" fill-opacity="1"><g transform="translate(279.274201, 230.643705)"><g><path d="M 25.609375 -28.046875 L 11.703125 -5.609375 L 24.6875 -5.609375 L 24.6875 0 L 0.546875 0 L 14.421875 -22.4375 L 2.515625 -22.4375 L 2.515625 -28.046875 Z M 25.609375 -28.046875 "/></g></g></g></svg>