<svg xmlns="http://www.w3.org/2000/svg" xmlns:xlink="http://www.w3.org/1999/xlink" width="500" zoomAndPan="magnify" viewBox="0 0 375 374.999991" height="500" preserveAspectRatio="xMidYMid meet" version="1.0"><defs><g/><clipPath id="3f687ff8c7"><path d="M 82 252 L 293 252 L 293 313.5625 L 82 313.5625 Z M 82 252 " clip-rule="nonzero"/></clipPath><clipPath id="58f3856f10"><path d="M 78.40625 61.5625 L 296.65625 61.5625 L 296.65625 181 L 78.40625 181 Z M 78.40625 61.5625 " clip-rule="nonzero"/></clipPath><clipPath id="04b5973f00"><path d="M 78.40625 185 L 296.65625 185 L 296.65625 248 L 78.40625 248 Z M 78.40625 185 " clip-rule="nonzero"/></clipPath><clipPath id="cb85de1a4b"><path d="M 55.078125 185.121094 L 319.921875 185.121094 L 319.921875 248.167969 L 55.078125 248.167969 Z M 55.078125 185.121094 " clip-rule="nonzero"/></clipPath></defs><rect x="-37.5" width="450" fill="#ffffff" y="-37.499999" height="449.999989" fill-opacity="1"/><rect x="-37.5" width="450" fill="#015802" y="-37.499999" height="449.999989" fill-opacity="1"/><path fill="#ffffff" d="M 277.785156 252.59375 L 187.496094 304.722656 L 97.207031 252.59375 Z M 277.785156 252.59375 " fill-opacity="1" fill-rule="evenodd"/><path fill="#63b702" d="M 123.140625 267.566406 L 114.699219 262.691406 L 127.3125 252.59375 L 141.84375 252.59375 Z M 151.300781 283.824219 L 143.4375 279.285156 L 158.660156 252.59375 L 169.117188 252.59375 Z M 192.039062 302.097656 L 187.496094 304.722656 L 182.957031 302.101562 L 182.957031 252.59375 L 192.039062 252.59375 Z M 231.558594 279.28125 L 223.691406 283.824219 L 205.875 252.589844 L 216.332031 252.589844 Z M 260.296875 262.691406 L 251.851562 267.566406 L 233.152344 252.59375 L 247.683594 252.59375 Z M 260.296875 262.691406 " fill-opacity="1" fill-rule="evenodd"/><g clip-path="url(#3f687ff8c7)"><path fill="#63b702" d="M 292.875 252.59375 L 187.496094 313.433594 L 82.117188 252.59375 L 92.179688 252.59375 L 187.496094 307.625 L 282.816406 252.59375 Z M 292.875 252.59375 " fill-opacity="1" fill-rule="evenodd"/></g><g clip-path="url(#58f3856f10)"><path fill="#63b702" d="M 187.496094 61.5625 L 296.558594 124.53125 L 296.558594 180.632812 L 291.527344 180.632812 L 291.527344 127.433594 L 187.496094 67.371094 L 83.464844 127.433594 L 83.464844 180.632812 L 78.433594 180.632812 L 78.433594 124.53125 Z M 187.496094 61.5625 " fill-opacity="1" fill-rule="evenodd"/></g><g clip-path="url(#04b5973f00)"><path fill="#63b702" d="M 78.433594 185.664062 L 296.558594 185.664062 L 296.558594 247.5625 L 78.433594 247.5625 Z M 78.433594 185.664062 " fill-opacity="1" fill-rule="evenodd"/></g><path fill="#ffffff" d="M 250.117188 153.320312 C 252.09375 145.171875 255.230469 136.996094 259.957031 128.785156 C 255.207031 143.242188 253.011719 157.203125 254.675781 170.414062 C 257.476562 162.296875 257.960938 152.585938 257.742188 142.386719 C 260.042969 152.277344 261.273438 162.046875 261.183594 171.660156 C 263.234375 157.269531 264.867188 142.429688 264.015625 124.84375 C 266.179688 135.167969 267.164062 145.25 267.316406 155.15625 C 270.140625 149.757812 273.265625 144.433594 277.03125 139.273438 C 274.105469 149.144531 273.390625 158.710938 274.484375 168.027344 C 275.136719 154.195312 281.070312 141.996094 289.769531 130.65625 C 287.105469 137.0625 285.011719 143.421875 283.164062 149.757812 C 284.195312 148.292969 285.28125 146.828125 286.84375 145.398438 C 283.5 153.925781 282.765625 162.128906 283.824219 170.105469 C 284.34375 163.34375 286.203125 157.011719 289.015625 150.984375 C 286.988281 167.140625 287.871094 172.265625 288.074219 180.632812 C 220.734375 180.476562 153.660156 180.636719 86.472656 180.492188 C 88.316406 171.019531 90.863281 152.246094 85.035156 139.058594 C 89.582031 143.605469 91.933594 148.980469 93.84375 155.257812 C 94.808594 145.152344 96.132812 134.949219 98.308594 124.53125 C 98.285156 137.835938 98.847656 150.777344 99.65625 163.5625 C 100.75 154.828125 103.472656 146.238281 109.414062 137.921875 C 106.796875 147.902344 106.421875 157.632812 107.546875 167.195312 C 108.921875 154.457031 112.777344 141.664062 120.9375 128.785156 C 115.710938 143.242188 113.292969 157.203125 115.125 170.414062 C 118.207031 162.296875 118.742188 152.585938 118.5 142.386719 C 121.03125 152.277344 122.386719 162.046875 122.289062 171.660156 C 124.542969 157.269531 126.34375 142.429688 125.402344 124.84375 C 129.269531 138.753906 130.355469 146.523438 134.429688 161.75 C 133.601562 140.703125 129.90625 126.464844 119.855469 107.339844 C 135.03125 121.757812 142.589844 140.210938 144.316406 161.761719 C 146.886719 147.945312 146.074219 134.046875 139.882812 120.027344 C 146.574219 126.722656 152.355469 134.019531 155.167969 143.265625 C 156.585938 128.378906 158.539062 113.359375 161.738281 98.015625 C 161.707031 117.609375 162.535156 136.664062 163.726562 155.496094 C 165.339844 142.636719 169.347656 129.984375 178.097656 117.734375 C 174.242188 132.433594 173.691406 146.761719 175.34375 160.847656 C 177.371094 142.085938 183.046875 123.25 195.0625 104.285156 C 187.367188 125.570312 183.804688 146.128906 186.503906 165.582031 C 191.042969 153.628906 191.832031 139.328125 191.472656 124.308594 C 195.199219 138.875 197.195312 153.261719 197.050781 167.417969 C 200.371094 146.226562 203.023438 124.371094 201.636719 98.472656 C 205.144531 113.675781 206.742188 128.523438 206.988281 143.113281 C 211.5625 135.160156 216.632812 127.320312 222.734375 119.722656 C 217.992188 134.261719 216.832031 148.347656 218.605469 162.070312 C 219.65625 141.695312 229.273438 123.734375 243.371094 107.035156 C 239.054688 116.46875 235.664062 125.832031 232.671875 135.164062 C 234.339844 133.003906 236.097656 130.847656 238.632812 128.742188 C 233.214844 141.300781 232.023438 153.378906 233.742188 165.125 C 235.191406 147.898438 243.144531 132.566406 254.378906 118.195312 C 245.710938 136.925781 240.933594 155.746094 240.621094 174.679688 C 242.75 167.507812 245.847656 160.382812 250.117188 153.320312 " fill-opacity="1" fill-rule="evenodd"/><g clip-path="url(#cb85de1a4b)"><path fill="#ffffff" d="M 55.078125 185.121094 L 319.832031 185.121094 L 319.832031 248.167969 L 55.078125 248.167969 Z M 55.078125 185.121094 " fill-opacity="1" fill-rule="nonzero"/></g><g fill="#015802" fill-opacity="1"><g transform="translate(69.573457, 230.844066)"><g><path d="M 27.40625 -15.703125 L 27.40625 -9.625 C 26.675781 -6.289062 25.085938 -3.765625 22.640625 -2.046875 C 20.191406 -0.335938 17.460938 0.515625 14.453125 0.515625 C 10.660156 0.515625 7.429688 -0.898438 4.765625 -3.734375 C 2.109375 -6.566406 0.78125 -9.992188 0.78125 -14.015625 C 0.78125 -18.085938 2.082031 -21.53125 4.6875 -24.34375 C 7.300781 -27.15625 10.554688 -28.5625 14.453125 -28.5625 C 19.003906 -28.5625 22.609375 -26.960938 25.265625 -23.765625 L 21.078125 -19.171875 C 19.585938 -21.578125 17.503906 -22.78125 14.828125 -22.78125 C 12.847656 -22.78125 11.160156 -21.921875 9.765625 -20.203125 C 8.378906 -18.492188 7.6875 -16.429688 7.6875 -14.015625 C 7.6875 -11.628906 8.378906 -9.59375 9.765625 -7.90625 C 11.160156 -6.21875 12.847656 -5.375 14.828125 -5.375 C 16.453125 -5.375 17.867188 -5.863281 19.078125 -6.84375 C 20.296875 -7.832031 20.90625 -9.144531 20.90625 -10.78125 L 14.453125 -10.78125 L 14.453125 -15.703125 Z M 27.40625 -15.703125 "/></g></g></g><g fill="#015802" fill-opacity="1"><g transform="translate(100.239078, 230.844066)"><g><path d="M 16.28125 -28.046875 L 27.609375 0 L 20.734375 0 L 18.671875 -5.609375 L 7.984375 -5.609375 L 5.921875 0 L -0.953125 0 L 10.375 -28.046875 Z M 16.484375 -11.21875 L 13.359375 -19.375 L 13.296875 -19.375 L 10.171875 -11.21875 Z M 16.484375 -11.21875 "/></g></g></g><g fill="#015802" fill-opacity="1"><g transform="translate(129.374875, 230.844066)"><g><path d="M 25.609375 -28.046875 L 11.703125 -5.609375 L 24.6875 -5.609375 L 24.6875 0 L 0.546875 0 L 14.421875 -22.4375 L 2.515625 -22.4375 L 2.515625 -28.046875 Z M 25.609375 -28.046875 "/></g></g></g><g fill="#015802" fill-opacity="1"><g transform="translate(158.000736, 230.844066)"><g><path d="M 0.78125 -14.046875 C 0.78125 -18.097656 2.160156 -21.53125 4.921875 -24.34375 C 7.691406 -27.15625 11.023438 -28.5625 14.921875 -28.5625 C 18.847656 -28.5625 22.179688 -27.160156 24.921875 -24.359375 C 27.660156 -21.554688 29.03125 -18.117188 29.03125 -14.046875 C 29.03125 -9.941406 27.679688 -6.488281 24.984375 -3.6875 C 22.285156 -0.882812 18.929688 0.515625 14.921875 0.515625 C 10.816406 0.515625 7.429688 -0.867188 4.765625 -3.640625 C 2.109375 -6.421875 0.78125 -9.890625 0.78125 -14.046875 Z M 7.6875 -14.046875 C 7.6875 -12.566406 7.910156 -11.21875 8.359375 -10 C 8.816406 -8.789062 9.609375 -7.765625 10.734375 -6.921875 C 11.867188 -6.085938 13.265625 -5.671875 14.921875 -5.671875 C 17.304688 -5.671875 19.101562 -6.488281 20.3125 -8.125 C 21.53125 -9.757812 22.140625 -11.734375 22.140625 -14.046875 C 22.140625 -16.328125 21.519531 -18.289062 20.28125 -19.9375 C 19.039062 -21.582031 17.253906 -22.40625 14.921875 -22.40625 C 12.609375 -22.40625 10.820312 -21.582031 9.5625 -19.9375 C 8.3125 -18.289062 7.6875 -16.328125 7.6875 -14.046875 Z M 7.6875 -14.046875 "/></g></g></g><g fill="#015802" fill-opacity="1"><g transform="translate(190.298169, 230.844066)"><g><path d="M 8.4375 -17.40625 L 8.4375 0 L 2.046875 0 L 2.046875 -28.046875 L 8.4375 -28.046875 L 19.578125 -10.640625 L 19.65625 -10.640625 L 19.65625 -28.046875 L 26.046875 -28.046875 L 26.046875 0 L 19.65625 0 L 8.5 -17.40625 Z M 8.4375 -17.40625 "/></g></g></g><g fill="#015802" fill-opacity="1"><g transform="translate(220.861801, 230.844066)"><g/></g></g><g fill="#015802" fill-opacity="1"><g transform="translate(232.625594, 230.844066)"><g><path d="M 16.28125 -28.046875 L 27.609375 0 L 20.734375 0 L 18.671875 -5.609375 L 7.984375 -5.609375 L 5.921875 0 L -0.953125 0 L 10.375 -28.046875 Z M 16.484375 -11.21875 L 13.359375 -19.375 L 13.296875 -19.375 L 10.171875 -11.21875 Z M 16.484375 -11.21875 "/></g></g></g><g fill="#015802" fill-opacity="1"><g transform="translate(261.761403, 230.844066)"><g><path d="M 2.046875 -12.4375 L 12.984375 -12.4375 L 12.984375 -7.234375 L 2.046875 -7.234375 Z M 2.046875 -12.4375 "/></g></g></g><g fill="#015802" fill-opacity="1"><g transform="translate(279.270542, 230.844066)"><g><path d="M 25.609375 -28.046875 L 11.703125 -5.609375 L 24.6875 -5.609375 L 24.6875 0 L 0.546875 0 L 14.421875 -22.4375 L 2.515625 -22.4375 L 2.515625 -28.046875 Z M 25.609375 -28.046875 "/></g></g></g></svg>